<svg version="1.1" xmlns="http://www.w3.org/2000/svg" xmlns:xlink="http://www.w3.org/1999/xlink" x="0px" y="0px" width="200px" height="50px" viewBox="0 0 518.8 80.9" style="overflow:visible;enable-background:new 0 0 518.8 80.9;" xml:space="preserve">
<defs>
</defs>
<g>
<path d="M89,64.2V16.7h6.1v6.9h0.2c2.1-4.9,5.7-7.6,13.4-8.1v6.4h-0.1c-8.8,0.9-13.5,6.6-13.5,14.2v28H89V64.2z"></path>
<path d="M162.7,64.2v-8.3h-0.2c-3.9,5.9-10.8,9.5-18.5,9.5c-14.2,0-25.5-10.8-25.5-25s11.6-24.8,25.5-24.8c7.9,0,14.7,3.6,18.5,9.5
		h0.2v-8.3h6.1v47.5h-6.1V64.2z M163,40.5c0-10.6-8.3-19.5-19.1-19.5c-10.9,0-19.4,8.3-19.4,19.6c0,10.9,8.2,19.3,19.4,19.3
		C154.6,59.9,163,51.2,163,40.5z"></path>
<path d="M188.6,64.2V16.7h6.1v47.5H188.6z"></path>
<path d="M250.4,64.2V37.7C250.4,27,244,21,235.6,21c-9.2,0-14.8,7-14.8,16.3v26.9h-6.1V16.7h6.1v6.1h0.2c3-4.6,8.4-7.3,14.6-7.3
		c13.1,0,20.9,9,20.9,22.2v26.5H250.4z"></path>
<path d="M278.1,80.9l8.2-18.2l-18.5-45.9h6.4l15.1,37.8l16.1-37.8h6.4l-27.5,64.1H278.1z"></path>
<path d="M396.9,50.2c-4.9,9.6-12.6,15.1-23.6,15.1c-14.1,0-25.5-10.5-25.5-25.3c0-13,11.5-24.5,25.5-24.5
		c10.4,0,19.7,5.8,23.6,15.5h-6.7c-3.6-6.6-9.9-10.1-16.7-10.1c-10.9,0-19.6,8.6-19.6,19.4c0,10.9,8.6,19.5,19.6,19.5
		c7.2,0,13.4-3.3,16.7-9.6C390.2,50.2,396.9,50.2,396.9,50.2z"></path>
<path d="M411.9,64.2V16.7h6.1v47.5H411.9z"></path>
<path d="M446.5,64.2v-42h-10v-5.5h10V0h6.1v16.7H464v5.5h-11.4v42H446.5z"></path>
<path d="M485.1,80.9l8.2-18.2l-18.5-46h6.4l15.1,37.8l16.1-37.8h6.4l-27.5,64.1h-6.2V80.9z"></path>
</g>
<path d="M26.7,25.7c4.7,0,8.6-3.8,8.6-8.6c0-3.7-4.3-10.3-6.2-13.1l-2.4-3.4L24.3,4c-1.9,2.7-6.2,9.4-6.2,13.1
	C18.1,21.9,21.9,25.7,26.7,25.7z"></path>
<path d="M48.7,57.6c5.9,0,10.7-4.8,10.7-10.7c0-4.5-5.4-12.9-7.8-16.3l-2.9-4.2l-2.9,4.2C43.5,34,38,42.3,38,46.9
	C38.1,52.8,42.8,57.6,48.7,57.6z"></path>
<path d="M13.5,77.5C21,77.5,27,71.4,27,64c0-5.8-6.9-16.3-9.8-20.6L13.5,38l-3.7,5.4C6.8,47.7,0,58.2,0,64C0,71.4,6,77.5,13.5,77.5z
	"></path>
</svg>